<?xml version="1.0" encoding="UTF-8" standalone="no"?>
<!DOCTYPE svg PUBLIC "-//W3C//DTD SVG 1.1//EN" "http://www.w3.org/Graphics/SVG/1.1/DTD/svg11.dtd">
<svg width="100%" height="100%" viewBox="0 0 72 72" version="1.1" xmlns="http://www.w3.org/2000/svg" xmlns:xlink="http://www.w3.org/1999/xlink" xml:space="preserve" xmlns:serif="http://www.serif.com/" style="fill-rule:evenodd;clip-rule:evenodd;stroke-linecap:round;stroke-linejoin:round;stroke-miterlimit:10;">
    <g transform="matrix(1,0,0,1,-326.093,-59.3393)">
        <g transform="matrix(1,0,0,1,-29.2154,0)">
            <g transform="matrix(1,0,0,1,391.149,112.161)">
                <path d="M0,-33.98C-2.921,-33.98 -5.842,-34.036 -8.76,-33.967C-13.32,-33.86 -16.124,-31.724 -16.954,-27.797C-17.13,-26.964 -17.261,-26.103 -17.265,-25.253C-17.292,-19.725 -17.366,-14.194 -17.253,-8.668C-17.141,-3.169 -14.36,-0.228 -9.056,-0.033C-3.064,0.187 2.938,0.169 8.93,-0.029C13.349,-0.175 15.975,-2.302 16.819,-6.121C16.971,-6.803 17.113,-7.504 17.117,-8.197C17.149,-14.5 17.495,-20.811 16.926,-27.102C16.589,-30.829 14.092,-33.263 10.379,-33.772C6.929,-34.246 3.458,-33.909 0,-33.98M-21.326,-26.803C-20.952,-28.751 -20.604,-30.706 -19.543,-32.438C-17.121,-36.39 -13.335,-37.907 -8.97,-38.013C-3.017,-38.159 2.945,-38.156 8.898,-38.011C12.94,-37.913 16.538,-36.582 18.999,-33.079C20.583,-30.823 21.174,-28.241 21.214,-25.572C21.301,-19.85 21.341,-14.124 21.209,-8.404C21.103,-3.797 19.501,0.134 15.188,2.477C13.195,3.558 11.011,4.028 8.782,4.054C2.904,4.122 -2.978,4.179 -8.853,4.045C-13.262,3.944 -17.093,2.456 -19.542,-1.537C-20.604,-3.269 -20.952,-5.225 -21.326,-7.173L-21.326,-26.803Z" style="fill-rule:nonzero;"/>
            </g>
            <g transform="matrix(1,0,0,1,398.036,95.1159)">
                <path d="M0,0.074C0.007,-3.706 -3.104,-6.802 -6.931,-6.822C-10.731,-6.842 -13.89,-3.73 -13.896,0.04C-13.902,3.82 -10.79,6.916 -6.965,6.936C-3.164,6.956 -0.006,3.845 0,0.074M4.095,0.128C4.077,6.067 -0.851,10.948 -6.902,11.021C-12.973,11.094 -18.008,6.082 -17.99,-0.014C-17.973,-6.007 -12.857,-11.02 -6.877,-10.906C-0.74,-10.79 4.112,-5.909 4.095,0.128" style="fill-rule:nonzero;"/>
            </g>
            <g transform="matrix(-0.999881,0.0154267,0.0154267,0.999881,402.478,86.5983)">
                <path d="M-0.034,-5.273C-1.499,-5.269 -2.718,-4.037 -2.688,-2.593C-2.659,-1.209 -1.453,-0.041 -0.034,-0.022C1.427,-0.003 2.674,-1.213 2.677,-2.652C2.681,-4.106 1.47,-5.277 -0.034,-5.273" style="fill-rule:nonzero;"/>
            </g>
            <g transform="matrix(1,0,0,1,412.345,61.3393)">
                <path d="M0,67.648L-42.423,67.648C-49.389,67.648 -55.036,62.001 -55.036,55.035L-55.036,12.612C-55.036,5.647 -49.389,0 -42.423,0L0,0C6.966,0 12.612,5.647 12.612,12.612L12.612,55.035C12.612,62.001 6.966,67.648 0,67.648Z" style="fill:none;fill-rule:nonzero;stroke:black;stroke-width:4px;"/>
            </g>
        </g>
    </g>
</svg>
