<?xml version="1.0" encoding="UTF-8" standalone="no"?>
<!DOCTYPE svg PUBLIC "-//W3C//DTD SVG 1.1//EN" "http://www.w3.org/Graphics/SVG/1.1/DTD/svg11.dtd">
<svg width="100%" height="100%" viewBox="0 0 72 72" version="1.1" xmlns="http://www.w3.org/2000/svg" xmlns:xlink="http://www.w3.org/1999/xlink" xml:space="preserve" xmlns:serif="http://www.serif.com/" style="fill-rule:evenodd;clip-rule:evenodd;stroke-linecap:round;stroke-linejoin:round;stroke-miterlimit:10;">
    <g transform="matrix(1,0,0,1,-214.234,-59.3393)">
        <g>
            <g transform="matrix(1,0,0,1,229.266,81.8655)">
                <path d="M0,26.406C4.574,26.807 8.58,25.717 12.286,23.067C11.484,22.863 10.803,22.725 10.144,22.517C7.662,21.734 5.937,20.092 4.861,17.749C4.529,17.026 4.602,16.968 5.391,16.981C6.206,16.994 7.036,17.113 8.005,16.747C6.52,16.321 5.334,15.665 4.33,14.727C2.717,13.223 1.761,11.373 1.593,9.157C1.524,8.261 1.638,8.199 2.437,8.563C3.218,8.92 4.025,9.153 5.005,9.159C4.395,8.457 3.733,7.949 3.262,7.265C1.393,4.552 1.075,1.681 2.365,-1.354C2.709,-2.162 2.846,-2.193 3.429,-1.538C6.291,1.677 9.723,4.037 13.795,5.453C15.591,6.077 17.438,6.483 19.328,6.677C20.299,6.776 20.382,6.672 20.271,5.721C19.872,2.336 21.789,-1.206 24.892,-2.823C28.002,-4.442 31.988,-3.981 34.518,-1.667C35.01,-1.217 35.48,-1.119 36.099,-1.288C37.419,-1.651 38.694,-2.119 39.906,-2.76C40.092,-2.858 40.257,-3.063 40.611,-2.932C40.031,-1.12 38.883,0.261 37.431,1.452C38.861,1.281 40.198,0.87 41.583,0.329C41.614,0.806 41.333,1.047 41.134,1.304C40.282,2.406 39.335,3.426 38.211,4.253C37.685,4.64 37.506,5.085 37.516,5.727C37.603,11.424 35.775,16.504 32.369,21.007C28.322,26.358 22.886,29.375 16.244,30.182C10.758,30.848 5.593,29.809 0.788,27.054C0.613,26.954 0.443,26.843 0.278,26.729C0.22,26.688 0.182,26.62 0,26.406" style="fill-rule:nonzero;"/>
            </g>
            <g transform="matrix(1,0,0,1,271.27,61.3393)">
                <path d="M0,67.648L-42.423,67.648C-49.389,67.648 -55.036,62.001 -55.036,55.035L-55.036,12.612C-55.036,5.647 -49.389,0 -42.423,0L0,0C6.966,0 12.612,5.647 12.612,12.612L12.612,55.035C12.612,62.001 6.966,67.648 0,67.648Z" style="fill:none;fill-rule:nonzero;stroke:black;stroke-width:4px;"/>
            </g>
        </g>
    </g>
</svg>
